<svg width="794" height="754" viewBox="0 0 794 754" fill="none" xmlns="http://www.w3.org/2000/svg">
<path d="M662.945 560.299C732.472 511.076 775.389 438.318 788.617 360.484C802 282.651 785.541 199.741 736.164 130.214C686.941 60.6862 614.184 17.77 536.35 4.38753C458.516 -8.84113 375.606 7.61778 306.079 56.8407L303.926 58.3789L23.5089 257.27C-1.56397 274.96 -7.56301 309.877 10.2803 334.95C27.9698 360.023 62.8873 366.022 87.9602 348.179L176.869 285.266L366.223 150.979L366.839 150.518C368.069 149.595 369.3 148.672 370.53 147.903C414.831 116.37 467.899 105.91 517.584 114.37C567.268 122.83 613.876 150.21 645.256 194.665C676.789 238.965 687.249 292.034 678.789 341.718C670.328 391.403 642.948 438.01 598.494 469.39C554.039 500.923 501.125 511.383 451.44 502.923C401.602 494.463 355.148 467.083 323.615 422.628C307.156 399.401 296.542 373.867 291.158 347.563C290.543 343.872 289.005 340.18 286.698 336.95C278.237 324.952 261.625 322.183 249.627 330.489L249.473 330.643L249.319 330.797L227.63 346.025L74.7315 454.469C49.5048 472.313 43.6596 507.23 61.349 532.303C79.1923 557.376 114.11 563.221 139.183 545.532L229.014 481.696C230.245 483.542 231.476 485.387 232.706 487.08C282.083 556.607 354.841 599.523 432.674 612.752C510.508 626.134 593.418 609.675 662.945 560.299ZM370.069 615.367L354.687 626.288L244.397 704.583L190.405 742.731C165.179 760.574 130.261 754.575 112.572 729.656C94.8821 704.583 100.727 669.666 125.8 651.822L179.792 613.521L256.702 559.068L265.932 552.454C296.388 579.834 331.767 601.061 370.069 615.367ZM552.04 353.101L462.669 404.939C460.208 406.323 457.593 407.861 455.286 408.938C452.979 410.015 450.517 410.784 448.364 411.092C445.288 411.707 441.903 411.861 438.827 411.553C438.366 411.399 437.904 411.399 437.289 411.246C436.674 411.092 436.366 411.246 435.751 410.938C433.443 410.63 429.136 408.938 427.29 407.861C422.061 404.939 417.907 401.247 414.831 396.017L414.216 395.094C413.754 394.325 413.447 393.402 412.985 392.479C411.293 389.095 410.524 384.634 410.37 381.404C410.216 377.405 410.216 368.022 410.216 363.868V335.873C410.216 329.566 410.062 321.106 410.216 314.799V307.877C410.216 302.647 410.062 296.802 410.062 291.572C410.062 290.803 410.216 290.034 410.062 289.265V272.96C410.062 272.191 410.062 271.114 410.062 270.499V262.039C410.062 260.654 410.062 259.27 410.062 257.732C410.062 254.348 409.909 239.119 410.062 236.658C410.524 231.12 411.908 225.583 414.985 220.968C418.676 215.431 423.599 210.97 430.213 208.355C433.289 207.124 436.366 206.355 439.289 206.048C444.365 205.74 446.826 206.201 451.594 207.432C453.44 207.893 455.594 208.816 457.286 209.739C462.054 212.2 468.976 216.507 473.898 219.276L484.82 225.583C486.204 226.352 487.281 226.967 488.511 227.736C489.896 228.506 490.973 229.121 492.357 229.89C495.741 231.89 499.74 234.043 503.278 236.197L514.353 242.503C516.815 243.888 519.122 245.272 521.737 246.81L528.966 250.963C532.504 252.963 536.504 255.27 540.042 257.27C546.041 260.654 552.501 264.654 558.5 267.884L573.113 276.344C573.729 276.805 574.344 277.113 574.959 277.421C580.035 280.343 583.265 281.882 587.572 286.035C589.265 287.573 590.803 289.573 592.033 291.572L592.956 293.111C594.033 295.11 594.956 297.264 595.571 299.417C596.34 302.34 596.802 305.109 596.802 308.185C596.802 308.954 596.802 309.569 596.802 310.339C596.802 310.954 596.802 311.877 596.494 312.492C596.956 313.876 595.11 319.568 594.187 321.568C591.726 327.413 588.188 331.258 583.112 335.104C581.727 336.027 554.193 351.87 552.04 353.101Z" fill="#21C45D"/>
</svg>
