<svg width="342" height="342" viewBox="0 0 342 342" fill="none" xmlns="http://www.w3.org/2000/svg">
<path d="M17.5667 1.93887C11.1667 4.20554 3.56667 12.2055 1.7 18.4722C-0.566667 25.9389 -0.566667 315.539 1.7 323.006C3.7 329.672 11.8333 337.806 18.5 339.806C25.9667 342.072 315.567 342.072 323.033 339.806C329.7 337.806 337.833 329.672 339.833 323.006C342.1 315.539 342.1 25.9389 339.833 18.4722C337.833 11.8055 329.7 3.6722 323.033 1.6722C315.3 -0.727797 23.9667 -0.46113 17.5667 1.93887ZM214.767 145.406C227.7 180.206 242.5 220.339 247.7 234.472L257.167 260.072L233.7 259.806L210.367 259.406L205.433 243.406L200.367 227.406H170.633H140.9L135.7 243.806L130.633 260.072H107.567H84.5L111.033 187.672C125.567 147.939 140.367 107.806 143.7 98.3389L149.833 81.4055L170.633 81.6722L191.433 82.0722L214.767 145.406Z" fill="#FAFAFA"/>
<path d="M161.034 161.939C156.101 178.072 151.967 191.806 152.101 192.339C152.101 193.539 189.434 193.806 189.434 192.739C189.434 191.406 171.834 135.539 170.901 133.939C170.501 133.006 165.967 145.672 161.034 161.939Z" fill="#FAFAFA"/>
</svg>
