<svg width="683" height="683" viewBox="0 0 683 683" fill="none" xmlns="http://www.w3.org/2000/svg">
<path d="M309.971 1.45074C243.571 7.58407 177.705 34.5174 125.971 76.6507C110.771 89.0507 86.9047 113.184 74.3714 128.651C45.438 164.784 21.9714 212.251 10.638 257.317C-9.62862 337.717 -0.828617 418.917 36.1047 493.184C69.3047 560.251 122.238 613.184 189.438 646.517C273.438 688.384 367.838 693.984 456.638 662.517C476.771 655.317 509.971 638.917 527.971 627.051C580.905 592.251 624.238 542.117 650.638 485.317C694.638 390.251 693.171 283.051 646.505 189.451C629.171 154.517 611.171 129.317 583.571 101.451C555.705 73.3174 528.771 53.8507 493.171 36.1174C435.838 7.58407 372.771 -4.41593 309.971 1.45074ZM273.305 54.7841C289.571 63.8507 302.638 72.6507 302.505 74.6507C302.505 75.7174 293.971 102.117 283.571 133.317L264.638 189.851L251.971 194.917C232.771 202.651 188.238 225.051 166.905 237.984L147.838 249.451L142.905 246.651C140.238 245.051 123.038 234.917 104.905 224.251L71.838 204.651L72.638 200.384C73.838 193.584 88.5047 157.584 96.3714 141.851C102.905 128.651 105.038 125.984 117.438 113.717C125.038 106.117 135.571 96.6507 140.638 92.5174C164.638 73.3174 201.705 51.9841 227.171 42.7841L237.838 38.9174L251.838 44.9174C259.571 48.1174 269.171 52.5174 273.305 54.7841ZM494.638 60.9174C520.238 74.6507 545.838 94.1174 568.238 116.784C586.238 134.917 597.971 149.584 610.905 169.984C620.505 185.317 632.638 207.717 631.705 208.651C631.438 208.917 627.038 206.384 621.971 203.184C611.038 196.117 575.038 177.984 567.438 175.717C562.771 174.251 555.705 166.917 512.105 117.584C459.038 57.8507 459.438 58.3841 461.838 48.5174L462.638 45.4507L473.038 50.1174C478.638 52.6507 488.371 57.5841 494.638 60.9174ZM484.238 118.917C507.838 145.584 531.038 171.584 535.705 176.917L544.238 186.517L539.971 199.584C534.905 214.917 512.105 273.451 510.371 275.317C508.771 277.051 362.105 291.984 361.171 290.517C359.438 287.584 303.705 224.917 293.838 214.784L283.038 203.584L303.438 142.251C314.771 108.384 324.505 80.2507 325.171 79.5841C327.571 77.1841 395.038 71.1841 423.571 70.7841L441.171 70.6507L484.238 118.917ZM96.1047 244.117C116.238 255.984 133.438 266.384 134.238 267.184C135.438 268.251 136.371 277.851 137.305 297.317C138.638 326.784 142.105 357.317 146.505 380.384L148.905 393.451L120.371 438.384C104.638 463.051 90.9047 484.117 89.9714 485.184C88.5047 486.651 86.238 485.584 75.9714 478.517C69.1714 473.851 58.5047 465.584 52.1047 459.984L40.7714 449.984L36.5047 436.651C21.438 389.584 18.1047 333.584 27.438 281.984C29.038 273.717 31.1714 267.317 34.3714 261.317C38.9047 253.184 58.5047 222.651 59.3047 222.651C59.5714 222.651 76.1047 232.384 96.1047 244.117ZM525.838 318.784C542.638 344.517 554.638 364.784 564.505 383.984L572.371 399.317L535.438 468.117L498.638 536.784L483.571 539.184C451.438 544.384 413.571 547.984 391.305 547.984H376.638L340.638 485.851C320.771 451.584 304.505 422.917 304.238 421.851C303.971 420.917 310.905 406.784 319.705 390.384C328.505 373.984 341.171 349.984 347.971 336.917C357.971 317.584 360.771 313.317 363.038 313.184C364.638 313.184 396.238 309.984 433.305 306.117C470.371 302.117 503.305 298.917 506.638 298.784L512.771 298.651L525.838 318.784ZM657.971 382.117C649.438 450.784 618.105 515.317 568.905 565.184C552.371 581.984 529.571 600.917 528.771 598.384C528.505 597.451 527.171 590.917 525.971 583.984C524.771 577.051 522.371 565.984 520.505 559.584L517.305 547.851L555.438 476.651L593.571 405.451L607.171 398.784C623.171 390.917 644.905 378.117 653.305 371.584C656.638 369.051 659.438 367.051 659.571 367.184C659.705 367.184 658.905 373.984 657.971 382.117ZM183.705 416.517C205.171 421.984 235.705 427.984 265.038 432.784C276.505 434.651 286.638 436.784 287.438 437.717C288.238 438.651 298.238 455.451 309.705 475.317C321.038 495.051 336.638 522.251 344.371 535.584L358.371 559.717L339.571 585.584C329.171 599.851 319.171 613.451 317.305 615.851L313.838 620.117L237.971 606.517C164.905 593.584 161.838 592.917 158.905 589.584C153.571 583.317 141.971 567.717 133.038 554.651C124.105 541.584 103.971 507.451 103.971 505.317C103.971 503.317 162.771 411.984 164.105 411.984C164.905 411.984 173.705 413.984 183.705 416.517ZM249.838 630.651C299.305 639.451 312.505 642.251 317.838 645.051C321.571 646.917 330.771 650.917 338.371 653.984L352.105 659.584L344.771 660.384C336.771 661.184 310.505 659.584 294.905 657.317C266.771 653.317 231.038 642.517 205.038 630.251C189.305 622.917 180.371 617.584 185.971 619.184C187.438 619.584 216.238 624.784 249.838 630.651Z" fill="#FAFAFA"/>
</svg>
