<svg width="318" height="318" viewBox="0 0 318 318" fill="none" xmlns="http://www.w3.org/2000/svg">
<path d="M228.486 3.60003C232.486 19.8667 231.953 30.6667 226.62 40.9334C220.22 53.4667 201.953 66 180.62 72.6667L171.42 75.4667L168.353 88.8C162.22 116.133 150.22 148.267 136.353 174.667C127.02 192.267 108.486 220.267 100.086 229.333C94.3529 235.6 93.0196 236.4 87.0196 236.933C81.4196 237.467 79.0196 236.933 72.2196 233.6C63.4196 229.067 51.2862 224.8 43.6862 223.467C38.8862 222.667 38.7529 222.667 31.8195 232.933C27.8195 238.667 19.2862 250.4 12.6195 259.2C1.15288 274.267 0.619548 275.467 0.0862147 282.8C-0.980452 298 7.81955 305.333 28.2195 306.4C42.8862 307.2 54.0862 304.4 64.8862 297.333C69.0196 294.533 84.8862 281.867 100.086 269.067C122.22 250.4 129.153 243.867 134.753 235.867C145.286 220.667 156.753 207.333 172.62 191.867C189.686 175.467 204.22 164.267 222.353 154C238.62 144.8 302.486 91.7334 305.153 85.3334C307.42 79.7334 305.553 73.3334 296.886 58.1334C285.553 38.4 268.353 18.6667 254.62 10.1334C248.353 6.13337 233.153 3.28412e-05 229.686 3.28412e-05C227.953 3.28412e-05 227.686 0.800033 228.486 3.60003Z" fill="#21C45D"/>
<path d="M111.286 80.6667C107.02 83.4667 103.02 90 101.686 96.6667C101.02 100.4 101.286 100.8 107.553 102.933C116.22 106 121.42 110.267 120.886 113.733C120.086 118.933 116.753 119.467 107.953 115.467C103.42 113.467 98.753 112 97.6863 112.267C96.4863 112.533 94.0863 116.267 92.353 120.533C88.6197 129.733 88.753 129.333 90.8863 129.333C91.6863 129.333 96.2197 131.067 100.886 133.333C108.486 136.933 109.286 137.733 108.886 140.8C108.22 146.933 105.02 147.6 96.0863 143.6C91.6863 141.6 87.153 140 85.953 140C83.6863 140 76.6197 154 77.8197 156C78.2197 156.533 80.0863 157.467 82.0863 158C84.2197 158.4 88.353 160.4 91.553 162.133C95.6863 164.533 97.153 166.267 97.153 168.667C97.153 174.133 93.0197 175.067 84.8863 171.333C71.953 165.467 71.6863 165.467 66.753 174.8C64.353 179.333 62.4863 183.2 62.753 183.333C63.0197 183.467 66.2197 184.667 69.8197 185.867C82.753 190.133 87.2863 194.533 83.953 199.733C82.353 202.4 78.6197 202 69.8197 198.133C57.953 193.067 56.753 193.333 51.2863 202.533C48.6197 206.8 46.4863 210.933 46.4863 211.6C46.4863 212.133 49.953 213.467 54.2197 214.533C58.353 215.467 67.0197 218.667 73.2863 221.6C83.0197 226.133 85.2863 226.667 87.6863 225.333C93.8197 222.133 117.953 186.133 129.686 162.933C140.22 142.133 152.62 107.733 157.553 86L159.42 78L137.42 77.8667C117.42 77.8667 115.153 78.1334 111.286 80.6667Z" fill="#21C45D"/>
<path d="M297.554 109.067L291.82 114L297.287 120.667C306.487 131.867 305.554 131.6 311.687 126.667C314.754 124.133 317.154 121.6 317.154 120.8C317.154 120 313.954 115.867 310.087 111.733L303.154 104.133L297.554 109.067Z" fill="#21C45D"/>
<path d="M250.887 148.267C248.087 150.667 245.553 152.667 245.287 152.933C244.487 153.467 258.62 169.333 259.953 169.333C261.42 169.333 270.487 161.333 270.487 160C270.487 158.533 258.087 144 256.887 144C256.353 144 253.687 145.867 250.887 148.267Z" fill="#21C45D"/>
<path d="M125.554 262.4L119.82 267.333L125.02 273.333L130.087 279.2L135.554 274.533C138.62 272.133 141.154 269.333 141.154 268.667C141.02 267.467 132.354 257.2 131.42 257.333C131.287 257.467 128.62 259.733 125.554 262.4Z" fill="#21C45D"/>
<path d="M78.8857 301.6C72.619 306.267 72.7524 307.333 79.5524 313.867L83.6857 317.6L87.5524 314.933C95.019 309.6 95.2857 308.4 90.8857 303.067C88.7524 300.4 86.3524 298 85.6857 297.733C84.8857 297.467 81.819 299.2 78.8857 301.6Z" fill="#21C45D"/>
</svg>
