<svg width="700" height="667" viewBox="0 0 700 667" fill="none" xmlns="http://www.w3.org/2000/svg">
<path d="M516.667 300C617.919 300 700 382.081 700 483.333C700 584.586 617.919 666.667 516.667 666.667C415.414 666.667 333.333 584.586 333.333 483.333C333.333 382.081 415.414 300 516.667 300ZM516.667 366.641L513.671 366.91C506.868 368.144 501.503 373.509 500.269 380.312L500 383.308L499.988 466.641L416.588 466.667L413.592 466.935C406.789 468.17 401.425 473.534 400.19 480.337L399.922 483.333L400.19 486.329C401.425 493.132 406.789 498.497 413.592 499.731L416.588 500L500.022 499.974L500.037 583.449L500.305 586.445C501.54 593.248 506.905 598.613 513.708 599.848L516.704 600.116L519.699 599.848C526.502 598.613 531.867 593.248 533.102 586.445L533.37 583.449L533.355 499.974L616.819 500L619.815 499.731C626.618 498.497 631.982 493.132 633.217 486.329L633.486 483.333L633.217 480.337C631.982 473.534 626.618 468.17 619.815 466.935L616.819 466.667L533.322 466.641L533.333 383.308L533.065 380.312C531.83 373.509 526.466 368.144 519.663 366.91L516.667 366.641ZM408.467 233.333C436.286 233.333 460.566 248.478 473.514 270.973C374.511 290.988 300 378.459 300 483.333C300 526.305 312.51 566.355 334.086 600.04L333.433 600C250.571 600 183.398 532.827 183.398 449.965V308.333C183.398 266.912 216.976 233.333 258.398 233.333H408.467ZM180.215 233.342C163.097 251.184 152.027 274.874 150.301 301.116L150.064 308.333V449.965C150.064 478.186 156.44 504.919 167.829 528.801C156.859 531.768 145.3 533.333 133.375 533.333C59.7139 533.333 0 473.619 0 399.959V308.333C0 268.638 30.8387 236.145 69.865 233.506L75 233.333L180.215 233.342ZM591.667 233.333C633.088 233.333 666.667 266.912 666.667 308.333L666.694 327.012C627.762 289.638 574.897 266.667 516.667 266.667L508.561 266.815C503.377 254.321 495.896 242.979 486.65 233.342L591.667 233.333ZM550 33.3333C596.024 33.3333 633.333 70.6429 633.333 116.667C633.333 162.69 596.024 200 550 200C503.976 200 466.667 162.69 466.667 116.667C466.667 70.6429 503.976 33.3333 550 33.3333ZM333.333 0C388.562 0 433.333 44.7715 433.333 100C433.333 155.228 388.562 200 333.333 200C278.105 200 233.333 155.228 233.333 100C233.333 44.7715 278.105 0 333.333 0ZM116.667 33.3333C162.69 33.3333 200 70.6429 200 116.667C200 162.69 162.69 200 116.667 200C70.6429 200 33.3333 162.69 33.3333 116.667C33.3333 70.6429 70.6429 33.3333 116.667 33.3333Z" fill="#CAD1DA"/>
</svg>
