<svg width="592" height="398" viewBox="0 0 592 398" fill="none" xmlns="http://www.w3.org/2000/svg">
<path d="M235.266 199.19C235.266 229.448 257.645 254.507 286.71 258.863L286.71 139.523C257.645 143.883 235.266 168.938 235.266 199.19Z" fill="#21C45D"/>
<path d="M0.0047361 38.9641L0.00473884 101.733L78.6146 101.733C83.723 101.733 87.8656 106.467 87.8656 111.58L87.8656 137.866C113.053 147.865 129.618 171.868 129.618 199.214C129.618 226.55 113.053 250.554 87.8656 260.557L87.8656 286.862C87.8656 291.961 83.723 295.956 78.6146 295.956L1.29367e-05 295.956L1.56996e-05 359.165C1.66371e-05 380.612 17.5599 397.689 38.9972 397.689L286.71 397.689L286.71 277.559C247.41 273.089 216.769 239.669 216.769 199.19C216.769 158.711 247.41 125.296 286.71 120.826L286.71 1.71553e-05L38.9972 2.79832e-05C17.5599 2.89203e-05 0.00473516 17.522 0.0047361 38.9641Z" fill="#21C45D"/>
<path d="M87.8672 240.01C102.122 231.559 111.123 216.286 111.123 199.214C111.123 182.141 102.122 166.859 87.8672 158.408L87.8672 240.01Z" fill="#21C45D"/>
<path d="M1.05108e-05 120.206L1.73836e-05 277.435L69.3636 277.435L69.3636 120.206L1.05108e-05 120.206Z" fill="#21C45D"/>
<path d="M305.203 258.777C333.998 254.19 356.093 229.254 356.093 199.19C356.093 169.131 333.998 144.195 305.203 139.608L305.203 258.777Z" fill="#21C45D"/>
<path d="M305.203 120.912C344.233 125.637 374.59 158.905 374.59 199.19C374.59 239.48 344.229 272.744 305.203 277.474L305.203 397.689L552.916 397.689C574.353 397.689 591.909 380.612 591.909 359.166L591.909 295.952L513.299 295.952C508.19 295.952 504.048 291.956 504.048 286.857L504.048 260.562C478.861 250.563 462.295 226.555 462.295 199.219C462.295 171.878 478.861 147.87 504.048 137.875L504.048 111.576C504.048 106.463 508.19 101.728 513.299 101.728L591.909 101.728L591.909 38.9643C591.909 17.5222 574.353 0.000262064 552.916 0.000263001L305.203 0.000273828L305.203 120.912Z" fill="#21C45D"/>
<path d="M480.793 199.223C480.793 216.291 489.793 231.564 504.048 240.02L504.048 158.422C489.793 166.873 480.793 182.151 480.793 199.223Z" fill="#21C45D"/>
<path d="M522.545 120.206L522.545 277.436L591.909 277.436L591.909 120.206L522.545 120.206Z" fill="#21C45D"/>
</svg>
