<svg width="874" height="380" viewBox="0 0 874 380" fill="none" xmlns="http://www.w3.org/2000/svg">
<path d="M508.261 137.668C525.345 125.573 535.889 107.697 539.14 88.5725C542.428 69.4485 538.384 49.0772 526.252 31.994C514.157 14.9109 496.281 4.36616 477.157 1.07803C458.032 -2.1723 437.661 1.87172 420.578 13.966L420.049 14.3439L351.149 63.2124C344.989 67.5587 343.515 76.1381 347.899 82.2986C352.245 88.4592 360.825 89.9332 366.985 85.549L388.831 70.091L435.356 37.0963L435.507 36.9829C435.809 36.7561 436.112 36.5294 436.414 36.3404C447.299 28.5925 460.338 26.0225 472.546 28.1012C484.753 30.1799 496.205 36.9073 503.915 47.83C511.663 58.7148 514.233 71.7539 512.154 83.9616C510.076 96.1693 503.348 107.621 492.426 115.331C481.503 123.079 468.502 125.649 456.294 123.57C444.048 121.492 432.634 114.764 424.887 103.842C420.843 98.1346 418.235 91.8607 416.912 85.3978C416.761 84.4907 416.383 83.5837 415.816 82.79C413.737 79.842 409.655 79.1617 406.707 81.2026L406.67 81.2404L406.632 81.2782L401.303 85.0199L363.735 111.665C357.537 116.049 356.1 124.629 360.447 130.789C364.831 136.95 373.41 138.386 379.571 134.039L401.643 118.355C401.945 118.808 402.248 119.262 402.55 119.678C414.682 136.761 432.559 147.305 451.683 150.556C470.807 153.844 491.178 149.8 508.261 137.668ZM436.301 151.198L432.521 153.882L405.422 173.119L392.156 182.492C385.958 186.876 377.379 185.402 373.032 179.28C368.686 173.119 370.122 164.54 376.283 160.156L389.549 150.745L408.446 137.365L410.714 135.74C418.197 142.468 426.89 147.683 436.301 151.198ZM481.012 86.7584L459.053 99.4952C458.448 99.8353 457.806 100.213 457.239 100.478C456.672 100.742 456.067 100.931 455.538 101.007C454.782 101.158 453.951 101.196 453.195 101.12C453.081 101.083 452.968 101.083 452.817 101.045C452.666 101.007 452.59 101.045 452.439 100.969C451.872 100.894 450.814 100.478 450.36 100.213C449.075 99.4952 448.055 98.5881 447.299 97.3031L447.148 97.0763C447.034 96.8874 446.959 96.6606 446.845 96.4338C446.429 95.6023 446.241 94.5063 446.203 93.7126C446.165 92.7299 446.165 90.4245 446.165 89.404V82.5254C446.165 80.9758 446.127 78.8971 446.165 77.3475V75.6468C446.165 74.3618 446.127 72.9256 446.127 71.6406C446.127 71.4516 446.165 71.2626 446.127 71.0736V67.0674C446.127 66.8784 446.127 66.6139 446.127 66.4627V64.384C446.127 64.0438 446.127 63.7037 446.127 63.3257C446.127 62.4943 446.089 58.7526 446.127 58.1479C446.241 56.7873 446.581 55.4267 447.337 54.2928C448.244 52.9322 449.453 51.8362 451.078 51.1937C451.834 50.8913 452.59 50.7023 453.308 50.6268C454.555 50.5512 455.16 50.6646 456.332 50.9669C456.785 51.0803 457.314 51.3071 457.73 51.5338C458.902 52.1385 460.602 53.1968 461.812 53.8771L464.495 55.4267C464.835 55.6156 465.1 55.7668 465.402 55.9558C465.743 56.1448 466.007 56.2959 466.347 56.4849C467.179 56.9763 468.161 57.5054 469.031 58.0345L471.752 59.5841C472.357 59.9242 472.924 60.2644 473.566 60.6423L475.342 61.6628C476.212 62.1541 477.194 62.721 478.064 63.2124C479.538 64.0438 481.125 65.0265 482.599 65.8202L486.189 67.8989C486.341 68.0123 486.492 68.0879 486.643 68.1635C487.89 68.8816 488.684 69.2595 489.742 70.28C490.158 70.6579 490.536 71.1492 490.838 71.6406L491.065 72.0185C491.329 72.5098 491.556 73.039 491.707 73.5681C491.896 74.2862 492.01 74.9665 492.01 75.7224C492.01 75.9113 492.01 76.0625 492.01 76.2515C492.01 76.4027 492.01 76.6294 491.934 76.7806C492.048 77.1208 491.594 78.5192 491.367 79.0105C490.763 80.4467 489.893 81.3916 488.646 82.3364C488.306 82.5632 481.541 86.456 481.012 86.7584Z" fill="#21C45D"/>
<path d="M49.1748 349.085C43.1663 349.085 37.1578 348.874 31.1493 348.453C25.2462 348.136 19.0796 347.293 12.6495 345.923V239.667C17.7092 238.719 23.2434 238.033 29.2519 237.612C35.2604 237.085 40.8472 236.821 46.0124 236.821C52.9696 236.821 59.3471 237.348 65.1447 238.402C71.0478 239.351 76.1076 241.038 80.3241 243.462C84.5406 245.887 87.8084 249.102 90.1274 253.107C92.5519 257.008 93.7641 261.857 93.7641 267.654C93.7641 276.403 89.5477 283.308 81.1147 288.368C88.0719 291.003 92.8154 294.587 95.3453 299.12C97.8752 303.653 99.1402 308.765 99.1402 314.457C99.1402 325.947 94.9237 334.591 86.4907 340.389C78.1631 346.186 65.7245 349.085 49.1748 349.085ZM36.6834 299.91V328.214C38.4754 328.424 40.4256 328.583 42.5338 328.688C44.6421 328.793 46.9611 328.846 49.491 328.846C56.8699 328.846 62.8257 327.792 67.3584 325.684C71.8911 323.575 74.1575 319.675 74.1575 313.983C74.1575 308.923 72.2601 305.339 68.4652 303.231C64.6704 301.017 59.2416 299.91 52.179 299.91H36.6834ZM36.6834 281.094H48.7004C56.2901 281.094 61.7188 280.146 64.9866 278.248C68.2544 276.245 69.8883 273.083 69.8883 268.761C69.8883 264.334 68.2017 261.224 64.8285 259.432C61.4553 257.64 56.5009 256.744 49.9654 256.744C47.8571 256.744 45.5908 256.797 43.1663 256.902C40.7418 256.902 38.5809 257.008 36.6834 257.218V281.094ZM190.708 347.662C189.548 343.867 188.231 339.967 186.755 335.961C185.385 331.956 184.014 327.95 182.644 323.944H139.952C138.582 327.95 137.159 331.956 135.683 335.961C134.312 339.967 133.047 343.867 131.888 347.662H106.273C110.384 335.856 114.284 324.946 117.974 314.932C121.663 304.917 125.247 295.483 128.726 286.628C132.31 277.774 135.788 269.394 139.161 261.488C142.64 253.476 146.224 245.676 149.913 238.086H173.473C177.057 245.676 180.588 253.476 184.067 261.488C187.546 269.394 191.024 277.774 194.503 286.628C198.087 295.483 201.724 304.917 205.413 314.932C209.102 324.946 213.003 335.856 217.114 347.662H190.708ZM161.14 262.911C160.613 264.492 159.822 266.653 158.768 269.394C157.714 272.134 156.502 275.297 155.131 278.881C153.761 282.465 152.232 286.418 150.546 290.74C148.965 295.061 147.331 299.594 145.644 304.338H176.794C175.107 299.594 173.473 295.061 171.892 290.74C170.311 286.418 168.782 282.465 167.306 278.881C165.936 275.297 164.724 272.134 163.67 269.394C162.616 266.653 161.772 264.492 161.14 262.911ZM267.823 349.085C261.814 349.085 255.806 348.874 249.797 348.453C243.894 348.136 237.728 347.293 231.297 345.923V239.667C236.357 238.719 241.891 238.033 247.9 237.612C253.908 237.085 259.495 236.821 264.66 236.821C271.618 236.821 277.995 237.348 283.793 238.402C289.696 239.351 294.756 241.038 298.972 243.462C303.188 245.887 306.456 249.102 308.775 253.107C311.2 257.008 312.412 261.857 312.412 267.654C312.412 276.403 308.196 283.308 299.763 288.368C306.72 291.003 311.463 294.587 313.993 299.12C316.523 303.653 317.788 308.765 317.788 314.457C317.788 325.947 313.572 334.591 305.139 340.389C296.811 346.186 284.372 349.085 267.823 349.085ZM255.331 299.91V328.214C257.123 328.424 259.073 328.583 261.182 328.688C263.29 328.793 265.609 328.846 268.139 328.846C275.518 328.846 281.474 327.792 286.006 325.684C290.539 323.575 292.805 319.675 292.805 313.983C292.805 308.923 290.908 305.339 287.113 303.231C283.318 301.017 277.89 299.91 270.827 299.91H255.331ZM255.331 281.094H267.348C274.938 281.094 280.367 280.146 283.635 278.248C286.902 276.245 288.536 273.083 288.536 268.761C288.536 264.334 286.85 261.224 283.476 259.432C280.103 257.64 275.149 256.744 268.613 256.744C266.505 256.744 264.239 256.797 261.814 256.902C259.39 256.902 257.229 257.008 255.331 257.218V281.094ZM409.356 347.662C408.196 343.867 406.879 339.967 405.403 335.961C404.033 331.956 402.662 327.95 401.292 323.944H358.6C357.23 327.95 355.806 331.956 354.331 335.961C352.96 339.967 351.695 343.867 350.536 347.662H324.921C329.032 335.856 332.932 324.946 336.621 314.932C340.311 304.917 343.895 295.483 347.373 286.628C350.958 277.774 354.436 269.394 357.809 261.488C361.288 253.476 364.872 245.676 368.561 238.086H392.121C395.705 245.676 399.236 253.476 402.715 261.488C406.193 269.394 409.672 277.774 413.151 286.628C416.735 295.483 420.371 304.917 424.061 314.932C427.75 324.946 431.651 335.856 435.762 347.662H409.356ZM379.788 262.911C379.261 264.492 378.47 266.653 377.416 269.394C376.362 272.134 375.15 275.297 373.779 278.881C372.409 282.465 370.88 286.418 369.194 290.74C367.613 295.061 365.979 299.594 364.292 304.338H395.441C393.755 299.594 392.121 295.061 390.54 290.74C388.959 286.418 387.43 282.465 385.954 278.881C384.584 275.297 383.372 272.134 382.318 269.394C381.264 266.653 380.42 264.492 379.788 262.911ZM520.819 236.821C537.158 236.821 549.702 239.72 558.451 245.518C567.201 251.21 571.575 260.592 571.575 273.663C571.575 286.839 567.148 296.379 558.293 302.282C549.439 308.08 536.789 310.979 520.345 310.979H512.597V347.662H487.931V239.667C493.307 238.613 498.999 237.875 505.008 237.454C511.016 237.032 516.287 236.821 520.819 236.821ZM522.401 257.851C520.609 257.851 518.817 257.904 517.025 258.009C515.338 258.114 513.862 258.22 512.597 258.325V289.949H520.345C528.883 289.949 535.314 288.789 539.635 286.47C543.957 284.151 546.118 279.829 546.118 273.505C546.118 270.448 545.539 267.918 544.379 265.915C543.325 263.912 541.744 262.331 539.635 261.171C537.633 259.906 535.155 259.063 532.204 258.642C529.252 258.114 525.985 257.851 522.401 257.851ZM662.897 326.474V347.662H589.689V238.086H614.355V326.474H662.897ZM757.093 347.662C755.933 343.867 754.615 339.967 753.14 335.961C751.769 331.956 750.399 327.95 749.028 323.944H706.337C704.966 327.95 703.543 331.956 702.067 335.961C700.697 339.967 699.432 343.867 698.273 347.662H672.657C676.768 335.856 680.669 324.946 684.358 314.932C688.048 304.917 691.632 295.483 695.11 286.628C698.694 277.774 702.173 269.394 705.546 261.488C709.025 253.476 712.609 245.676 716.298 238.086H739.858C743.442 245.676 746.973 253.476 750.452 261.488C753.93 269.394 757.409 277.774 760.887 286.628C764.471 295.483 768.108 304.917 771.798 314.932C775.487 324.946 779.387 335.856 783.498 347.662H757.093ZM727.524 262.911C726.997 264.492 726.207 266.653 725.153 269.394C724.099 272.134 722.886 275.297 721.516 278.881C720.146 282.465 718.617 286.418 716.93 290.74C715.349 295.061 713.715 299.594 712.029 304.338H743.178C741.492 299.594 739.858 295.061 738.276 290.74C736.695 286.418 735.167 282.465 733.691 278.881C732.321 275.297 731.108 272.134 730.054 269.394C729 266.653 728.157 264.492 727.524 262.911ZM822.094 283.15C826.521 275.666 830.738 268.181 834.743 260.697C838.749 253.213 842.438 245.676 845.812 238.086H873.008C867 249.892 860.78 261.33 854.35 272.398C847.92 283.466 841.121 294.587 833.953 305.761V347.662H809.286V306.077C802.118 294.903 795.267 283.73 788.731 272.556C782.301 261.382 776.081 249.892 770.073 238.086H798.692C802.066 245.676 805.702 253.213 809.603 260.697C813.503 268.181 817.667 275.666 822.094 283.15Z" fill="white"/>
</svg>
