<svg width="147" height="144" viewBox="0 0 147 144" fill="none" xmlns="http://www.w3.org/2000/svg">
<path fill-rule="evenodd" clip-rule="evenodd" d="M14.0957 55.348C22.1461 59.959 54.2343 47.9401 60.9618 52.6267C61.8311 57.3511 58.5052 61.0928 57.3335 64.948C63.7209 68.3495 75.3996 73.0361 80.6154 78.97C82.3918 81.0109 83.7902 84.1857 86.1335 85.9999C92.1052 70.0125 92.7855 64.5322 97.0185 50.9637C98.5303 46.2393 99.702 44.1606 103.595 42.233L125.932 33.918C128.54 33.0487 142.751 27.9464 144.905 26.2456C146.606 24.885 146.152 25.2251 146.039 23.5621C136.401 20.2739 60.6217 37.433 42.9713 42.8377C36.3949 44.8787 26.228 47.9401 20.0674 50.548C17.3461 51.6818 14.3981 52.5889 14.0957 55.348Z" fill="url(#paint0_linear_2040_12)"/>
<path fill-rule="evenodd" clip-rule="evenodd" d="M0.0746424 77.1558C-0.870239 81.3511 7.40693 88.4566 10.6951 92.1227C13.6809 95.4487 20.1439 101.685 25.1329 103.839C39.0416 109.811 56.9943 90.044 62.4368 90.9511C65.1959 98.6991 48.6416 137.59 52.6857 142.542C52.6857 142.542 53.2526 144.885 56.6542 141.672C61.114 137.477 71.5833 118.201 74.5691 111.927C82.8085 94.7306 86.2479 86.8314 69.5802 76.3621C66.9345 74.6991 63.7975 72.7337 60.925 71.4109C56.8053 69.5211 54.3865 67.4046 51.514 70.6928C47.4321 75.3416 42.3298 80.6707 37.8321 84.2613C30.2353 90.3463 27.9676 89.8928 19.5392 84.4503C15.9487 82.1448 5.66834 75.5684 0.0746424 77.1558Z" fill="url(#paint1_linear_2040_12)"/>
<path fill-rule="evenodd" clip-rule="evenodd" d="M86.7022 136.948C86.0597 135.361 85.6817 118.882 86.5888 116.954C87.7227 114.535 90.5951 117.068 92.5227 118.126C106.734 126.138 108.548 126.101 99.7794 130.863C95.0172 133.433 89.5369 138.006 86.7022 136.948ZM89.0077 110.227C67.1243 117.03 76.3463 148.475 97.7762 143.146C105.864 141.105 112.441 132.412 109.644 121.905C107.754 114.687 99.4392 107.014 89.0077 110.227Z" fill="url(#paint2_linear_2040_12)"/>
<path fill-rule="evenodd" clip-rule="evenodd" d="M77.0637 0.771534C58.9976 7.08335 68.0685 33.0487 85.6811 27.6818C92.0307 25.7542 97.1708 18.3841 94.6385 9.91799C92.7488 3.68177 85.3787 -2.1387 77.0637 0.771534Z" fill="url(#paint3_linear_2040_12)"/>
<defs>
<linearGradient id="paint0_linear_2040_12" x1="14.0957" y1="54.5734" x2="146.179" y2="54.5734" gradientUnits="userSpaceOnUse">
<stop stop-color="#21C45D"/>
<stop offset="1" stop-color="#0F9842"/>
</linearGradient>
<linearGradient id="paint1_linear_2040_12" x1="0" y1="106.172" x2="81.4239" y2="106.172" gradientUnits="userSpaceOnUse">
<stop stop-color="#21C45D"/>
<stop offset="1" stop-color="#0F9842"/>
</linearGradient>
<linearGradient id="paint2_linear_2040_12" x1="76.4688" y1="126.613" x2="110.299" y2="126.613" gradientUnits="userSpaceOnUse">
<stop stop-color="#21C45D"/>
<stop offset="1" stop-color="#0F9842"/>
</linearGradient>
<linearGradient id="paint3_linear_2040_12" x1="67.2031" y1="14.2036" x2="95.298" y2="14.2036" gradientUnits="userSpaceOnUse">
<stop stop-color="#21C45D"/>
<stop offset="1" stop-color="#0F9842"/>
</linearGradient>
</defs>
</svg>
