<svg width="1003" height="198" viewBox="0 0 1003 198" fill="none" xmlns="http://www.w3.org/2000/svg">
<path d="M291.228 139.752C286.048 139.752 280.868 139.57 275.689 139.206C270.6 138.934 265.284 138.207 259.741 137.025V45.4261C264.102 44.6082 268.873 44.0175 274.053 43.654C279.233 43.1997 284.049 42.9725 288.502 42.9725C294.499 42.9725 299.997 43.4269 304.995 44.3356C310.084 45.1534 314.446 46.6074 318.081 48.6975C321.716 50.7875 324.533 53.5591 326.532 57.0123C328.622 60.3746 329.667 64.5547 329.667 69.5527C329.667 77.0951 326.032 83.0472 318.762 87.4091C324.76 89.6809 328.849 92.7706 331.03 96.6781C333.211 100.586 334.301 104.993 334.301 109.9C334.301 119.805 330.666 127.257 323.397 132.255C316.218 137.253 305.495 139.752 291.228 139.752ZM280.46 97.3596V121.759C282.004 121.941 283.685 122.077 285.503 122.168C287.32 122.259 289.32 122.304 291.501 122.304C297.862 122.304 302.996 121.395 306.903 119.578C310.811 117.76 312.765 114.398 312.765 109.491C312.765 105.129 311.129 102.04 307.858 100.222C304.586 98.3138 299.906 97.3596 293.818 97.3596H280.46ZM280.46 81.1389H290.819C297.362 81.1389 302.042 80.321 304.859 78.6853C307.676 76.9588 309.084 74.2326 309.084 70.5068C309.084 66.6902 307.63 64.0095 304.722 62.4646C301.815 60.9198 297.544 60.1474 291.909 60.1474C290.092 60.1474 288.138 60.1928 286.048 60.2837C283.958 60.2837 282.095 60.3746 280.46 60.5563V81.1389ZM413.239 138.525C412.239 135.253 411.103 131.891 409.831 128.438C408.65 124.985 407.469 121.532 406.287 118.079H369.484C368.303 121.532 367.076 124.985 365.804 128.438C364.622 131.891 363.532 135.253 362.532 138.525H340.45C343.994 128.347 347.356 118.942 350.537 110.309C353.718 101.676 356.807 93.543 359.806 85.9097C362.896 78.2764 365.894 71.0521 368.802 64.2366C371.801 57.3303 374.891 50.6058 378.071 44.063H398.381C401.471 50.6058 404.515 57.3303 407.514 64.2366C410.513 71.0521 413.512 78.2764 416.51 85.9097C419.6 93.543 422.735 101.676 425.916 110.309C429.096 118.942 432.458 128.347 436.002 138.525H413.239ZM387.749 65.4634C387.295 66.8265 386.613 68.6894 385.705 71.0521C384.796 73.4147 383.751 76.1409 382.569 79.2306C381.388 82.3202 380.071 85.7279 378.617 89.4537C377.253 93.1795 375.845 97.087 374.391 101.176H401.244C399.79 97.087 398.381 93.1795 397.018 89.4537C395.655 85.7279 394.337 82.3202 393.065 79.2306C391.884 76.1409 390.839 73.4147 389.93 71.0521C389.021 68.6894 388.294 66.8265 387.749 65.4634ZM479.717 139.752C474.537 139.752 469.358 139.57 464.178 139.206C459.089 138.934 453.773 138.207 448.23 137.025V45.4261C452.592 44.6082 457.362 44.0175 462.542 43.654C467.722 43.1997 472.538 42.9725 476.991 42.9725C482.988 42.9725 488.486 43.4269 493.484 44.3356C498.573 45.1534 502.935 46.6074 506.57 48.6975C510.205 50.7875 513.022 53.5591 515.021 57.0123C517.111 60.3746 518.156 64.5547 518.156 69.5527C518.156 77.0951 514.521 83.0472 507.251 87.4091C513.249 89.6809 517.338 92.7706 519.519 96.6781C521.7 100.586 522.791 104.993 522.791 109.9C522.791 119.805 519.156 127.257 511.886 132.255C504.707 137.253 493.984 139.752 479.717 139.752ZM468.949 97.3596V121.759C470.493 121.941 472.175 122.077 473.992 122.168C475.809 122.259 477.809 122.304 479.99 122.304C486.351 122.304 491.485 121.395 495.392 119.578C499.3 117.76 501.254 114.398 501.254 109.491C501.254 105.129 499.618 102.04 496.347 100.222C493.075 98.3138 488.395 97.3596 482.307 97.3596H468.949ZM468.949 81.1389H479.308C485.851 81.1389 490.531 80.321 493.348 78.6853C496.165 76.9588 497.573 74.2326 497.573 70.5068C497.573 66.6902 496.119 64.0095 493.212 62.4646C490.304 60.9198 486.033 60.1474 480.399 60.1474C478.581 60.1474 476.627 60.1928 474.537 60.2837C472.447 60.2837 470.584 60.3746 468.949 60.5563V81.1389ZM601.728 138.525C600.728 135.253 599.593 131.891 598.32 128.438C597.139 124.985 595.958 121.532 594.776 118.079H557.973C556.792 121.532 555.565 124.985 554.293 128.438C553.111 131.891 552.021 135.253 551.021 138.525H528.939C532.483 128.347 535.846 118.942 539.026 110.309C542.207 101.676 545.296 93.543 548.295 85.9097C551.385 78.2764 554.384 71.0521 557.291 64.2366C560.29 57.3303 563.38 50.6058 566.56 44.063H586.87C589.96 50.6058 593.004 57.3303 596.003 64.2366C599.002 71.0521 602.001 78.2764 604.999 85.9097C608.089 93.543 611.224 101.676 614.405 110.309C617.585 118.942 620.948 128.347 624.492 138.525H601.728ZM576.238 65.4634C575.784 66.8265 575.102 68.6894 574.194 71.0521C573.285 73.4147 572.24 76.1409 571.059 79.2306C569.877 82.3202 568.56 85.7279 567.106 89.4537C565.743 93.1795 564.334 97.087 562.88 101.176H589.733C588.279 97.087 586.87 93.1795 585.507 89.4537C584.144 85.7279 582.827 82.3202 581.554 79.2306C580.373 76.1409 579.328 73.4147 578.419 71.0521C577.511 68.6894 576.784 66.8265 576.238 65.4634ZM697.817 42.9725C711.902 42.9725 722.716 45.4715 730.258 50.4695C737.801 55.3766 741.572 63.4642 741.572 74.7324C741.572 86.0914 737.755 94.3154 730.122 99.4042C722.489 104.402 711.584 106.901 697.408 106.901H690.729V138.525H669.465V45.4261C674.099 44.5173 679.006 43.8812 684.186 43.5177C689.366 43.1542 693.91 42.9725 697.817 42.9725ZM699.18 61.1015C697.635 61.1015 696.09 61.147 694.546 61.2378C693.092 61.3287 691.819 61.4196 690.729 61.5105V88.7722H697.408C704.769 88.7722 710.312 87.7726 714.038 85.7734C717.764 83.7742 719.626 80.0484 719.626 74.5961C719.626 71.9608 719.127 69.7798 718.127 68.0533C717.218 66.3267 715.855 64.9636 714.038 63.964C712.311 62.8735 710.176 62.1466 707.631 61.7831C705.087 61.3287 702.27 61.1015 699.18 61.1015ZM820.298 120.259V138.525H757.187V44.063H778.451V120.259H820.298ZM901.5 138.525C900.501 135.253 899.365 131.891 898.093 128.438C896.911 124.985 895.73 121.532 894.549 118.079H857.745C856.564 121.532 855.337 124.985 854.065 128.438C852.884 131.891 851.793 135.253 850.794 138.525H828.712C832.256 128.347 835.618 118.942 838.798 110.309C841.979 101.676 845.069 93.543 848.067 85.9097C851.157 78.2764 854.156 71.0521 857.064 64.2366C860.062 57.3303 863.152 50.6058 866.333 44.063H886.643C889.732 50.6058 892.777 57.3303 895.775 64.2366C898.774 71.0521 901.773 78.2764 904.772 85.9097C907.861 93.543 910.996 101.676 914.177 110.309C917.358 118.942 920.72 128.347 924.264 138.525H901.5ZM876.011 65.4634C875.556 66.8265 874.875 68.6894 873.966 71.0521C873.057 73.4147 872.012 76.1409 870.831 79.2306C869.65 82.3202 868.332 85.7279 866.878 89.4537C865.515 93.1795 864.106 97.087 862.652 101.176H889.505C888.051 97.087 886.643 93.1795 885.28 89.4537C883.916 85.7279 882.599 82.3202 881.327 79.2306C880.145 76.1409 879.1 73.4147 878.192 71.0521C877.283 68.6894 876.556 66.8265 876.011 65.4634ZM957.536 82.9109C961.353 76.459 964.987 70.007 968.441 63.5551C971.894 57.1032 975.074 50.6058 977.982 44.063H1001.43C996.248 54.2407 990.886 64.1003 985.343 73.6419C979.8 83.1835 973.938 92.7706 967.759 102.403V138.525H946.495V102.676C940.316 93.0432 934.409 83.4107 928.775 73.7782C923.232 64.1458 917.87 54.2407 912.69 44.063H937.362C940.27 50.6058 943.405 57.1032 946.768 63.5551C950.13 70.007 953.719 76.459 957.536 82.9109Z" fill="white"/>
<path d="M173.776 146.854C191.993 133.928 203.256 114.88 206.733 94.4704C210.21 74.0614 205.902 52.3295 192.976 34.1125C180.05 15.8955 161.002 4.63267 140.593 1.15556C120.184 -2.32154 98.4518 1.98705 80.2348 14.9128L79.6679 15.2907H79.7056L6.15734 67.4095C-0.418919 72.0582 -1.9685 81.2045 2.68024 87.7808C7.32897 94.3571 16.5131 95.9066 23.0893 91.2579L46.3708 74.7417L95.9951 39.5549L96.1841 39.4415H96.1463C96.4865 39.1769 96.7888 38.9502 97.129 38.7234C108.77 30.4842 122.64 27.7252 135.679 29.9551C148.719 32.1849 160.888 39.3659 169.165 51.0066C177.405 62.6474 180.164 76.518 177.934 89.5571C175.704 102.596 168.523 114.766 156.882 123.043C145.241 131.282 131.371 134.041 118.332 131.812C105.293 129.582 93.1227 122.401 84.8457 110.76C80.5371 104.675 77.7403 97.9476 76.3419 91.0689C76.153 90.1241 75.775 89.1792 75.1703 88.3099C72.9404 85.173 68.594 84.4171 65.4571 86.6092L65.3815 86.647L65.3437 86.6848L59.6745 90.691L19.5744 119.113C12.9982 123.761 11.4486 132.945 16.0973 139.484C20.7461 146.06 29.9301 147.61 36.5064 142.961L60.0524 126.256C60.3926 126.709 60.695 127.201 61.0351 127.654C73.9231 145.871 93.0093 157.134 113.418 160.611C133.828 164.088 155.559 159.78 173.776 146.854ZM97.0156 161.291L92.9716 164.164L64.0587 184.648L49.9235 194.664C43.3094 199.35 34.1631 197.763 29.5144 191.225C24.8657 184.648 26.4153 175.502 32.9915 170.816L47.1645 160.8L67.309 146.514L69.7279 144.775C77.7025 151.956 86.9622 157.55 97.0156 161.291ZM144.712 92.5429L121.28 106.111C120.637 106.489 119.957 106.905 119.352 107.169C118.747 107.472 118.067 107.623 117.538 107.736C116.707 107.925 115.837 107.925 115.044 107.85C114.892 107.812 114.779 107.812 114.628 107.774C114.477 107.736 114.401 107.736 114.25 107.699C113.607 107.623 112.511 107.169 112.02 106.905C110.622 106.111 109.563 105.166 108.77 103.806L108.581 103.541C108.467 103.314 108.354 103.088 108.278 102.861C107.825 101.954 107.598 100.82 107.56 99.9507C107.522 98.9302 107.522 96.4358 107.522 95.3397V88.0076C107.522 86.3446 107.485 84.1525 107.522 82.4896V80.6754C107.56 79.3148 107.485 77.7652 107.522 76.4046C107.522 76.2156 107.522 75.9889 107.522 75.7999L107.485 71.5291C107.485 71.3024 107.485 71.0756 107.522 70.8866L107.485 68.6567C107.485 68.2788 107.522 67.9386 107.485 67.5607C107.485 66.6536 107.447 62.6852 107.522 62.0049C107.598 60.5687 107.976 59.1325 108.807 57.9231C109.752 56.4869 111.075 55.2774 112.776 54.5971C113.57 54.257 114.401 54.068 115.157 53.9924C116.48 53.9168 117.122 54.0302 118.37 54.3326C118.899 54.4838 119.428 54.7105 119.881 54.9751C121.091 55.5798 122.943 56.7514 124.228 57.4317L127.1 59.0947C127.44 59.3215 127.743 59.4726 128.083 59.6616C128.385 59.8884 128.725 60.0396 129.065 60.2285C129.935 60.7577 131.031 61.3624 131.938 61.8915L134.81 63.5545C135.49 63.9324 136.095 64.3103 136.738 64.6505L138.665 65.7843C139.61 66.2757 140.631 66.9182 141.575 67.4473C143.163 68.3166 144.826 69.337 146.375 70.2063L150.23 72.4362C150.419 72.5496 150.571 72.6252 150.722 72.7008C152.082 73.4944 152.876 73.8724 154.048 74.9684C154.463 75.3842 154.841 75.8755 155.181 76.4046L155.408 76.8204C155.711 77.3495 155.937 77.9164 156.089 78.4455C156.353 79.2392 156.429 79.9573 156.429 80.751C156.466 80.94 156.466 81.129 156.429 81.3179C156.429 81.5069 156.466 81.7337 156.353 81.8848C156.466 82.225 155.975 83.7368 155.748 84.3037C155.106 85.8155 154.161 86.7981 152.838 87.8186C152.498 88.0832 145.279 92.2028 144.712 92.5429Z" fill="#21C45D"/>
</svg>
