<svg width="238" height="299" viewBox="0 0 238 299" fill="none" xmlns="http://www.w3.org/2000/svg">
<path d="M101.336 0.785206C97.336 2.25187 92.0026 8.38521 91.336 12.3852C90.936 14.6519 92.0026 39.5852 93.8693 67.8519C96.2693 105.452 96.8026 119.585 95.736 120.919C94.936 121.852 92.6693 122.519 90.8026 122.252C87.336 121.852 87.0693 120.919 74.936 71.8519C61.736 18.5185 61.336 17.3185 52.4026 14.5185C46.536 12.5185 40.8026 13.8519 36.136 18.5185C29.2026 25.5852 29.2026 25.8519 47.336 89.7185C56.536 122.119 64.0026 149.719 64.0026 151.052C64.0026 155.052 56.8026 161.185 52.0026 161.185C48.4026 161.185 45.4693 159.052 33.336 147.185C19.736 133.985 18.6693 133.185 13.336 133.185C5.4693 133.185 0.00263375 138.652 0.00263375 146.652C0.00263375 152.919 -1.3307 151.452 56.0026 209.585L83.2026 237.185H122.936C160.803 237.185 162.669 237.319 164.003 239.719C166.003 243.585 165.736 281.452 163.736 284.252C162.136 286.252 157.736 286.519 122.669 286.785L83.336 287.185L82.936 292.785L82.536 298.519H132.536H182.669V267.852V237.319L188.536 230.652C202.803 214.519 205.336 205.852 205.336 171.852C205.336 154.519 205.869 144.785 207.203 139.719C208.269 135.585 215.469 117.985 223.203 100.519C232.136 80.5185 237.336 66.9185 237.336 64.1185C237.336 53.8519 224.403 48.1185 216.536 54.9185C214.403 56.7852 206.269 71.3185 196.803 89.9852C181.203 120.919 180.536 121.852 176.669 121.852C173.336 121.852 172.536 121.185 172.269 118.519C172.003 116.652 174.936 95.7185 178.669 72.1185C182.269 48.3852 185.336 27.1852 185.336 25.0519C185.336 15.9852 178.269 9.18521 168.669 9.18521C165.203 9.18521 162.803 10.2519 159.336 13.4519L154.536 17.8519L146.536 65.1852C142.136 91.1852 137.869 113.185 137.069 114.119C135.336 116.385 131.336 116.385 129.603 114.119C128.936 113.319 127.069 90.1185 125.603 61.7185C122.803 6.51854 122.803 5.98521 114.536 1.71854C110.803 -0.148128 105.069 -0.548128 101.336 0.785206ZM193.203 149.719C195.469 152.385 194.536 159.985 191.736 161.719C188.269 163.852 184.803 161.185 184.269 155.985C183.736 151.185 185.869 147.852 189.336 147.852C190.669 147.852 192.403 148.652 193.203 149.719ZM193.336 173.852C194.536 175.319 194.803 179.452 194.403 188.252C193.603 203.452 190.003 212.252 181.869 219.852C175.869 225.319 172.403 226.385 169.603 223.585C166.803 220.785 167.869 217.585 172.669 213.985C180.136 208.252 183.069 201.052 183.736 187.185C184.003 180.519 184.936 174.385 185.603 173.452C187.469 171.185 191.336 171.452 193.336 173.852Z" fill="#21C45D"/>
<path d="M65.3359 261.852V275.852H110.003H154.669V261.852V247.852H110.003H65.3359V261.852Z" fill="#21C45D"/>
</svg>
