<svg width="512" height="406" viewBox="0 0 512 406" fill="none" xmlns="http://www.w3.org/2000/svg">
<path d="M0 32C0 14.2933 14.2933 0 32 0H373.333C391.04 0 405.333 14.2933 405.333 32C405.333 49.7067 391.04 64 373.333 64H32C14.2933 64 0 49.7067 0 32ZM373.333 341.333H32C14.2933 341.333 0 355.627 0 373.333C0 391.04 14.2933 405.333 32 405.333H373.333C391.04 405.333 405.333 391.04 405.333 373.333C405.333 355.627 391.04 341.333 373.333 341.333ZM480 170.667H138.667C120.96 170.667 106.667 184.96 106.667 202.667C106.667 220.373 120.96 234.667 138.667 234.667H480C497.707 234.667 512 220.373 512 202.667C512 184.96 497.707 170.667 480 170.667Z" fill="#F0F4F8"/>
</svg>
