<svg width="320" height="318" viewBox="0 0 320 318" fill="none" xmlns="http://www.w3.org/2000/svg">
<path d="M62.625 0.351901C62.625 4.7519 75.1583 19.9519 81.5583 23.2852C84.7583 25.0186 85.825 25.0186 89.025 23.2852C95.5583 19.8186 109.692 2.48523 107.692 0.351901C107.292 0.0852343 102.492 0.885234 96.7583 2.08523C86.625 4.3519 78.0917 3.81857 65.6917 0.351901C63.9583 -0.181432 62.625 -0.048099 62.625 0.351901Z" fill="#D5D5D5"/>
<path d="M32.8921 6.75192L17.0254 12.0853L20.6254 15.8186C24.6254 19.9519 28.6254 29.8186 29.9587 38.7519L30.8921 45.0186L41.1587 34.7519C46.7587 29.0186 53.2921 23.1519 55.6921 21.8186C57.9587 20.3519 59.9587 18.8853 59.9587 18.3519C59.9587 16.8853 50.2254 1.15192 49.4254 1.28525C49.0254 1.28525 41.5587 3.81858 32.8921 6.75192Z" fill="#D5D5D5"/>
<path d="M115.558 9.28525C112.892 13.8186 110.625 17.9519 110.625 18.3519C110.625 18.8853 112.625 20.3519 115.025 21.8186C117.292 23.1519 123.825 29.0186 129.425 34.7519L139.692 45.0186L140.625 38.7519C141.958 29.8186 145.958 19.9519 149.958 15.8186L153.558 12.0853L138.358 7.15192C130.092 4.35192 122.625 1.81858 121.825 1.55192C121.025 1.28525 118.225 4.75192 115.558 9.28525Z" fill="#D5D5D5"/>
<path d="M193.692 15.9519C191.425 18.2185 191.292 42.6185 193.559 44.8852C194.625 45.9519 202.492 46.4852 220.225 46.4852H231.959C239.322 46.4852 245.292 52.4548 245.292 59.8185V64.0852C245.292 69.0926 241.233 73.1519 236.225 73.1519C227.025 73.1519 223.959 74.4852 223.959 78.3519C223.959 81.6852 258.492 121.152 261.292 121.152C264.092 121.152 298.625 81.6852 298.625 78.3519C298.625 74.4852 295.559 73.1519 286.492 73.1519C281.521 73.1519 277.455 69.191 277.325 64.2216L277.025 52.7519C276.625 34.2185 276.359 32.0852 273.425 27.4185C271.692 24.6185 267.825 20.7519 264.892 18.7519L263.773 17.9968C261.024 16.1408 257.791 15.1299 254.474 15.0886L227.425 14.7519C202.892 14.4852 194.892 14.7519 193.692 15.9519Z" fill="#FF3232"/>
<path d="M6.62558 25.4184C5.15891 27.8184 3.02558 32.7517 1.95891 36.3517C-0.44109 44.3517 -0.707756 63.9517 1.55891 66.2184C2.49224 67.1517 6.89224 67.8184 12.2256 67.8184H21.2922V59.4184C21.2922 42.6184 15.9589 22.8851 11.0256 21.4184C10.0922 21.1517 8.09224 22.8851 6.62558 25.4184Z" fill="#D5D5D5"/>
<path d="M156.626 24.3517C152.759 30.0851 150.493 39.9517 149.693 54.0851L148.893 67.8184H158.226C170.626 67.8184 171.026 67.2851 170.359 50.7517C169.959 39.5517 169.293 36.6184 165.959 29.8184C163.693 25.4184 161.293 21.6851 160.359 21.4184C159.559 21.1517 157.826 22.4851 156.626 24.3517Z" fill="#D5D5D5"/>
<path d="M98.2262 29.8185C96.2262 31.6852 92.2262 33.6852 89.4262 34.6185C85.0262 35.9519 83.5595 35.6852 78.4928 33.2852C75.2928 31.8185 71.5595 29.8185 70.3595 28.8852C68.3595 27.4185 67.1595 27.6852 63.0262 29.8185C54.4928 34.4852 42.0928 47.9519 37.1595 57.8185L32.6262 67.0185L32.2262 102.085L31.8262 137.152H85.2928H138.76L138.36 102.085L137.96 67.0185L133.426 57.9519C128.493 47.8185 116.093 34.4852 107.293 29.5519L101.96 26.7519L98.2262 29.8185ZM102.226 61.4185C106.493 65.5519 106.626 66.0852 106.626 75.8185C106.626 81.9519 105.96 86.6186 105.026 87.5519C103.826 88.7519 103.826 89.5519 105.026 90.7519C105.96 91.6852 106.626 96.3519 106.626 102.352C106.626 111.819 106.36 112.619 102.36 116.752C98.0928 121.152 98.0928 121.152 85.2928 121.152C72.4928 121.152 72.4928 121.152 68.0928 116.619C64.4928 112.885 63.8262 111.285 64.2262 107.152C65.0262 98.0852 73.1595 97.1519 74.6262 105.952C75.2928 109.819 75.2928 109.819 85.2928 109.819H95.2928V102.485V95.1519L86.0928 94.4852C79.2928 93.9519 76.4928 93.1519 75.4262 91.4186C72.6262 87.0186 75.9595 84.6185 86.0928 83.8185L95.2928 83.1519V75.8185V68.4852H85.2928C75.2928 68.4852 75.2928 68.4852 74.6262 72.3519C73.1595 81.1519 65.0262 80.2185 64.2262 71.1519C63.8262 67.0185 64.4928 65.4185 68.0928 61.6852C72.4928 57.1519 72.4928 57.1519 85.1595 57.1519C97.5595 57.1519 97.9595 57.2852 102.226 61.4185Z" fill="#D5D5D5"/>
<path d="M32.3586 153.952C32.7586 158.485 34.0919 161.285 37.1586 164.352L41.2919 168.485H85.2919H129.292L133.425 164.352C136.492 161.285 137.825 158.485 138.225 153.952L139.025 147.818H85.2919H31.5586L32.3586 153.952Z" fill="#D5D5D5"/>
<path d="M211.959 149.685C211.959 154.085 224.492 169.285 230.892 172.618C234.092 174.352 235.159 174.352 238.359 172.618C244.892 169.152 259.026 151.818 257.026 149.685C256.626 149.418 251.826 150.218 246.092 151.418C235.959 153.685 227.426 153.152 215.026 149.685C213.292 149.152 211.959 149.285 211.959 149.685Z" fill="#D5D5D5"/>
<path d="M182.226 156.085L166.359 161.419L169.959 165.152C173.959 169.285 177.959 179.152 179.293 188.085L180.226 194.352L190.493 184.085C196.093 178.352 202.626 172.485 205.026 171.152C207.293 169.685 209.293 168.219 209.293 167.685C209.293 166.219 199.559 150.485 198.759 150.619C198.359 150.619 190.893 153.152 182.226 156.085Z" fill="#D5D5D5"/>
<path d="M264.892 158.619C262.226 163.152 259.959 167.285 259.959 167.685C259.959 168.219 261.959 169.685 264.359 171.152C266.626 172.485 273.159 178.352 278.759 184.085L289.026 194.352L289.959 188.085C291.292 179.152 295.292 169.285 299.292 165.152L302.892 161.419L287.692 156.485C279.426 153.685 271.959 151.152 271.159 150.885C270.359 150.619 267.559 154.085 264.892 158.619Z" fill="#D5D5D5"/>
<path d="M155.96 174.752C154.493 177.152 152.36 182.085 151.293 185.685C148.893 193.685 148.626 213.285 150.893 215.552C151.826 216.485 156.226 217.152 161.56 217.152H170.626V208.752C170.626 191.952 165.293 172.219 160.36 170.752C159.426 170.485 157.426 172.219 155.96 174.752Z" fill="#D5D5D5"/>
<path d="M305.96 173.685C302.093 179.419 299.827 189.285 299.027 203.419L298.227 217.152H307.56C319.96 217.152 320.36 216.619 319.693 200.085C319.293 188.885 318.627 185.952 315.293 179.152C313.027 174.752 310.627 171.019 309.693 170.752C308.893 170.485 307.16 171.819 305.96 173.685Z" fill="#D5D5D5"/>
<path d="M247.558 179.152C245.558 181.018 241.558 183.018 238.758 183.952C234.358 185.285 232.892 185.018 227.825 182.618C224.625 181.152 220.892 179.152 219.692 178.218C217.692 176.752 216.492 177.018 212.358 179.152C203.958 183.685 191.425 197.152 186.492 207.285L181.958 216.352L181.558 251.418L181.158 286.485H234.625H288.092L287.692 251.418L287.292 216.352L282.758 207.285C277.825 197.152 265.425 183.818 256.625 178.885L251.292 176.085L247.558 179.152ZM222.358 208.218C223.158 209.152 223.958 215.018 224.225 221.152L224.625 232.485H234.625H244.625L245.292 220.618C245.825 211.285 246.492 208.485 248.358 207.285C249.958 206.218 251.292 206.218 253.025 207.285C254.892 208.485 255.425 211.152 255.692 221.818C255.958 230.218 255.558 235.418 254.492 236.618C253.292 238.085 253.292 238.885 254.492 240.352C255.558 241.552 255.958 246.752 255.692 255.152C255.425 265.818 254.892 268.485 253.025 269.685C251.292 270.752 249.958 270.752 248.358 269.685C246.492 268.485 245.825 265.685 245.292 256.352L244.625 244.485L233.292 244.085C222.625 243.685 221.692 243.418 217.692 239.552C213.292 235.285 213.292 235.152 213.292 222.485C213.292 209.418 214.225 206.485 218.758 206.485C219.958 206.485 221.558 207.285 222.358 208.218Z" fill="#D5D5D5"/>
<path d="M38.7596 216.085C29.1596 227.285 21.293 237.419 21.293 238.485C21.293 242.485 24.3596 243.819 33.4263 243.819C38.3974 243.819 42.4632 247.779 42.5931 252.749L42.893 264.219C43.293 283.819 43.4263 284.885 46.893 290.085C48.893 293.019 52.7596 296.885 55.5596 298.619C60.493 301.685 61.693 301.819 92.3596 302.219C115.56 302.485 124.626 302.219 126.093 301.019C128.493 299.019 128.76 274.485 126.36 272.085C125.293 271.019 117.426 270.485 99.693 270.485H87.9596C80.5958 270.485 74.6263 264.516 74.6263 257.152V252.885C74.6263 247.878 78.6856 243.819 83.693 243.819C92.893 243.819 95.9596 242.485 95.9596 238.485C95.9596 235.285 61.4263 195.819 58.6263 195.819C57.0263 195.819 49.5596 203.419 38.7596 216.085Z" fill="#21C45D"/>
<path d="M181.693 303.285C182.093 307.819 183.426 310.619 186.493 313.685L190.626 317.819H234.626H278.626L282.759 313.685C285.826 310.619 287.159 307.819 287.559 303.285L288.359 297.152H234.626H180.893L181.693 303.285Z" fill="#D5D5D5"/>
</svg>
