<svg width="125" height="148" viewBox="0 0 125 148" fill="none" xmlns="http://www.w3.org/2000/svg">
<path d="M59.0399 3.31304C54.6501 7.86847 46.119 13.4178 38.8304 16.5652C29.6367 20.458 21.1884 22.363 10.5039 22.86L0.896084 23.3569L0.316303 32.0536C-2.16848 67.9173 10.0898 102.538 33.4467 126.144C42.8888 135.669 59.0399 147.347 62.8499 147.347C66.1629 147.347 85.9583 132.521 93.4955 124.322C100.204 117.116 107.907 106.017 112.297 97.4033C116.19 89.6177 121.242 74.0464 122.899 64.9355C124.555 55.3277 125.383 39.5908 124.638 30.4799L123.975 23.3569L114.368 22.86C95.2348 21.866 78.5868 15.1571 66.0801 3.47869L62.3529 6.25104e-06L59.0399 3.31304ZM78.1727 19.8782C88.7744 25.4276 105.257 29.7345 115.693 29.7345H118.343V41.0817C118.343 69.8223 109.232 95.7468 91.7561 116.702C83.5564 126.558 65.2518 140.473 61.6903 139.562C60.6136 139.313 56.5551 136.746 52.4966 133.93C23.0934 112.975 6.52825 79.0988 6.52825 39.6736V29.983L15.4734 29.0719C20.3602 28.4921 27.2347 27.3326 30.6306 26.3386C38.5819 24.1852 52.0825 17.5591 57.8803 13.0037L62.3529 9.35934L67.4053 13.1693C70.1386 15.24 75.0253 18.2217 78.1727 19.8782Z" fill="#FF0F0F"/>
<path d="M57.8803 20.3752C49.7634 26.7528 33.9436 32.9648 22.6793 34.29C19.946 34.5385 16.7158 35.0354 15.4734 35.2011L13.1543 35.698V44.8917C13.1543 81.0038 30.3821 112.892 60.0338 131.61L62.5186 133.267L69.0618 128.877C81.2372 120.926 94.4894 105.686 101.364 91.9369C104.594 85.4764 108.984 71.5617 110.392 63.1134C111.137 59.1378 111.883 51.2693 112.131 45.72L112.545 35.6152L109.895 35.2011C97.057 33.3789 93.0813 32.6335 87.6976 30.8941C80.7403 28.575 70.7183 23.4398 66.0801 19.7955C64.4235 18.3874 62.6842 17.3107 62.3529 17.3935C61.9388 17.3935 59.9509 18.7187 57.8803 20.3752Z" fill="#FF0F0F"/>
</svg>
