<svg width="342" height="342" viewBox="0 0 342 342" fill="none" xmlns="http://www.w3.org/2000/svg">
<path d="M49.334 10V20H63.334H77.334V76.2667C77.334 121.6 77.734 134.267 79.334 141.067C84.8007 164.133 100.401 185.733 121.334 198.933C168.401 228.8 231.867 209.867 255.467 159.067C263.601 141.733 264.001 138.667 264.001 76.2667V20H278.001H292.001V10V4.01718e-05H170.667H49.334V10Z" fill="#21C45D"/>
<path d="M0 76.2667C0 104 0.533333 114.667 2 121.2C7.86667 145.867 27.8667 166.133 52.9333 172.667C61.2 174.8 71.2 175.333 70.4 173.6C63.0667 155.867 62.4 154.933 55.3333 152.667C46.9333 150 35.8667 142.533 31.3333 136.533C29.4667 134 26.2667 128.533 24.2667 124.267C20.8 116.933 20.6667 115.867 20.2667 88.2667L19.8667 60H38.5333H57.3333V50V40H28.6667H0V76.2667Z" fill="#21C45D"/>
<path d="M283.999 50V60H302.799H321.466L321.066 88.2667C320.666 116 320.533 116.8 317.066 124.4C309.999 139.333 300.533 147.867 285.733 152.667C280.933 154.267 278.533 155.867 277.866 157.867C277.333 159.333 275.599 163.6 273.866 167.2C272.133 170.933 270.666 174 270.666 174.267C270.666 175.467 281.733 174.4 288.666 172.667C313.199 166.267 333.466 145.6 339.333 121.2C340.799 114.667 341.333 104 341.333 76.2667V40H312.666H283.999V50Z" fill="#21C45D"/>
<path d="M141.334 253.067V277.067L130.134 277.467C118.001 278 114.401 279.733 108.801 287.2C106.401 290.267 105.867 293.2 105.601 306.133L105.067 321.333H91.2007H77.334V331.333V341.333H170.667H264.001V331.333V321.333H250.134H236.267L235.734 306.133C235.467 293.2 234.934 290.267 232.534 287.2C226.934 279.733 223.334 278 211.201 277.467L200.001 277.067V253.067C200.001 230.133 199.867 229.2 197.467 230C192.001 231.733 178.934 233.333 170.667 233.333C162.401 233.333 149.334 231.733 143.867 230C141.467 229.2 141.334 230.133 141.334 253.067Z" fill="#21C45D"/>
</svg>
