<svg width="342" height="342" viewBox="0 0 342 342" fill="none" xmlns="http://www.w3.org/2000/svg">
<path d="M40 70V140H170.667H301.333V70V-7.30157e-06H170.667H40V70ZM159.867 30.9333V42L153.6 46C135.467 57.7333 137.067 86.8 156.4 96.8C159.867 98.6667 160 99.0667 160 109.333V120H110H60V110V100H80H100V70V40H80H60V30V20H110H160L159.867 30.9333ZM281.333 30V40H261.333H241.333V70V100H261.333H281.333V110V120H231.333H181.333V109.333C181.333 99.0667 181.467 98.6667 185.067 96.8C204.267 86.8 205.867 57.7333 187.733 46L181.467 42V30.9333L181.333 20H231.333H281.333V30ZM80 70V80H70H60V70V60H70H80V70ZM176.533 62.8C183.467 68.2667 179.6 80 170.667 80C161.733 80 157.867 68.2667 164.8 62.8C166.8 61.2 169.333 60 170.667 60C172 60 174.533 61.2 176.533 62.8ZM281.333 70V80H271.333H261.333V70V60H271.333H281.333V70Z" fill="#21C45D"/>
<path d="M0 250.667V341.333H63.8667H127.733L129.867 335.067C135.6 317.2 184 161.467 184 160.8C184 160.4 142.667 160 92 160H0V250.667ZM156 182.667C156 183.733 133.067 258 114.533 316.933L113.067 321.333H66.5333H20V251.333V181.333H88C134.533 181.333 156 181.733 156 182.667Z" fill="#21C45D"/>
<path d="M40 211.867C40 222.133 40.4 223.467 54.8 260.267C62.9333 280.933 69.8667 298.8 70.2667 299.6C70.6667 300.8 74 301.333 80.1333 301.333C87.4667 301.333 89.4667 300.933 90.5333 298.933C91.2 297.733 98.1333 280.267 105.867 260.267C119.867 224.267 120 223.6 120 212.533V201.333H110H100V210.667C100 218.933 99.0667 222.4 90.4 244.667C85.0667 258.267 80.4 268.933 79.8667 268.4C79.4667 267.733 74.8 256.4 69.4667 242.933C61.2 221.6 60 217.333 60 209.867V201.333H50H40V211.867Z" fill="#21C45D"/>
<path d="M212.801 162.267C212.401 163.6 200.134 203.333 185.334 250.667C170.534 298 158.267 337.733 157.867 338.933C157.201 341.2 162.134 341.333 249.201 341.333H341.334V250.667V160H277.467C217.734 160 213.467 160.133 212.801 162.267ZM321.334 251.333V321.333H252.801H184.134L186.667 313.6C188.134 309.467 196.801 281.733 206.001 252C215.201 222.267 224.001 194.267 225.467 189.6L228.267 181.333H274.801H321.334V251.333Z" fill="#21C45D"/>
<path d="M257.734 204.133C247.201 209.333 241.334 219.067 241.334 230.933C241.467 240.133 244.934 247.6 252.001 253.6C257.201 258.133 259.867 259.2 274.267 262.133C278.667 262.933 281.734 268.4 280.667 273.333C279.201 279.733 274.534 281.333 256.667 281.333H241.334V291.467V301.6L260.401 301.067C276.534 300.667 280.134 300.133 284.667 297.733C303.334 287.867 306.667 263.6 291.334 249.467C285.734 244.4 280.934 242.267 270.401 240.667C262.001 239.333 258.267 229.733 264.001 224C266.401 221.6 268.401 221.333 284.001 221.333H301.334V211.333V201.333H282.401C265.734 201.333 262.667 201.733 257.734 204.133Z" fill="#21C45D"/>
</svg>
